<svg width="16" height="12" viewBox="0 0 16 12" fill="none" xmlns="http://www.w3.org/2000/svg">
<path d="M1.2 0.200001C0.53726 0.200001 0 0.737241 0 1.4C0 2.06272 0.53726 2.6 1.2 2.6H14.8C15.4627 2.6 16 2.06272 16 1.4C16 0.737241 15.4627 0.200001 14.8 0.200001H1.2ZM1.2 4.8C0.53726 4.8 0 5.33724 0 6C0 6.66272 0.53726 7.2 1.2 7.2H14.8C15.4627 7.2 16 6.66272 16 6C16 5.33724 15.4627 4.8 14.8 4.8H1.2ZM1.2 9.4C0.53726 9.4 0 9.93724 0 10.6C0 11.2627 0.53726 11.8 1.2 11.8H14.8C15.4627 11.8 16 11.2627 16 10.6C16 9.93724 15.4627 9.4 14.8 9.4H1.2Z" fill="#333333"/>
</svg>
