<svg width="512" height="512" viewBox="0 0 512 512" fill="none" xmlns="http://www.w3.org/2000/svg">
<rect width="512" height="512" rx="256" fill="url(#paint0_linear)"/>
<g filter="url(#filter0_i)">
<path fill-rule="evenodd" clip-rule="evenodd" d="M55.3838 325.755V255.999C55.3838 145.202 145.202 55.3838 255.999 55.3838C310.649 55.3838 360.195 77.2359 396.377 112.679L353.729 139.329C327.29 117.158 293.203 103.808 255.999 103.808C171.946 103.808 103.808 171.946 103.808 255.999H152.232L55.3838 325.755ZM157.535 372.05C184.076 394.592 218.45 408.192 256.001 408.192C340.053 408.192 408.192 340.054 408.192 256.001H359.767L456.612 185.094L456.616 256.001C456.616 366.798 366.797 456.616 256.001 456.616C201.012 456.616 151.19 434.492 114.951 398.66L157.535 372.05ZM332.96 322.584H277.618L256.001 293.382L234.383 322.584H179.041L229.179 257.15L179.04 189.417H230.923L256.001 222.146L281.078 189.418H332.962L282.822 257.15L332.96 322.584Z" fill="white"/>
</g>
<defs>
<filter id="filter0_i" x="55.3838" y="55.3838" width="401.232" height="401.232" filterUnits="userSpaceOnUse" color-interpolation-filters="sRGB">
<feFlood flood-opacity="0" result="BackgroundImageFix"/>
<feBlend mode="normal" in="SourceGraphic" in2="BackgroundImageFix" result="shape"/>
<feColorMatrix in="SourceAlpha" type="matrix" values="0 0 0 0 0 0 0 0 0 0 0 0 0 0 0 0 0 0 127 0" result="hardAlpha"/>
<feOffset/>
<feGaussianBlur stdDeviation="0.5"/>
<feComposite in2="hardAlpha" operator="arithmetic" k2="-1" k3="1"/>
<feColorMatrix type="matrix" values="0 0 0 0 0.14902 0 0 0 0 0.196078 0 0 0 0 0.219608 0 0 0 0.25 0"/>
<feBlend mode="normal" in2="shape" result="effect1_innerShadow"/>
</filter>
<linearGradient id="paint0_linear" x1="256" y1="0" x2="256" y2="512" gradientUnits="userSpaceOnUse">
<stop stop-color="#4527A0"/>
<stop offset="1" stop-color="#6200EA"/>
</linearGradient>
</defs>
</svg>
