<svg width="512" height="512" viewBox="0 0 512 512" fill="none" xmlns="http://www.w3.org/2000/svg">
<circle cx="256" cy="256" r="256" fill="url(#paint0_radial)"/>
<path d="M144.549 128H134.4C130.865 128 128 130.865 128 134.4V374.4C128 379.702 132.298 384 137.6 384H162.424C164.97 384 167.411 382.989 169.212 381.188L226.537 323.863C227.787 322.613 227.787 320.587 226.537 319.337L202.263 295.063C201.013 293.813 198.987 293.813 197.737 295.063L171.863 320.937C169.847 322.953 166.4 321.525 166.4 318.675V212.525C166.4 209.675 169.847 208.247 171.863 210.263L342.788 381.188C344.589 382.989 347.03 384 349.576 384H377.6C381.135 384 384 381.135 384 377.6V134.4C384 130.865 381.135 128 377.6 128H364.8L285.463 207.337C284.213 208.587 284.213 210.613 285.463 211.863L309.737 236.137C310.987 237.387 313.013 237.387 314.263 236.137L340.137 210.263C342.153 208.247 345.6 209.675 345.6 212.525V318.675C345.6 321.525 342.153 322.953 340.137 320.937L149.075 129.875C147.874 128.674 146.246 128 144.549 128Z" fill="white"/>
<defs>
<radialGradient id="paint0_radial" cx="0" cy="0" r="1" gradientUnits="userSpaceOnUse" gradientTransform="translate(256 256) rotate(90) scale(256)">
<stop stop-color="#171E2C"/>
<stop offset="1" stop-color="#171E2C" stop-opacity="0.9"/>
</radialGradient>
</defs>
</svg>
