<svg width="512" height="512" viewBox="0 0 512 512" fill="none" xmlns="http://www.w3.org/2000/svg">
<rect width="512" height="512" rx="256" fill="black"/>
<path d="M414.396 357.729C418.128 355.729 422.174 360.099 419.443 363.335C384.223 405.072 331.528 431.583 272.64 431.583C166.601 431.583 80.6401 345.622 80.6401 239.583C80.6401 180.695 107.151 128 148.888 92.7799C152.124 90.0491 156.494 94.0946 154.494 97.827C140.038 124.804 131.84 155.636 131.84 188.383C131.84 294.422 217.801 380.383 323.84 380.383C356.587 380.383 387.419 372.185 414.396 357.729Z" fill="white"/>
<path d="M232.169 280.054C209.674 257.56 209.674 221.089 232.169 198.595C259.322 171.442 361.145 142.027 365.67 146.552C370.196 151.078 340.78 252.901 313.627 280.054C302.58 291.102 288.161 296.723 273.682 296.919C258.681 297.122 243.615 291.5 232.169 280.054Z" fill="white"/>
</svg>
