<svg width="22" height="22" viewBox="0 0 22 22" fill="none" xmlns="http://www.w3.org/2000/svg">
<g filter="url(#filter0_d)">
<path d="M4.89058 4.8906C7.47392 2.30726 11.2862 1.70181 14.4455 3.07423L12.7968 4.72292C10.5917 4.09387 8.12043 4.64756 6.38399 6.384C4.08888 8.67912 3.86 12.258 5.69738 14.8092L8.14893 12.3576L9.64234 13.8511L5.68246 17.8109C5.40791 17.596 5.14336 17.3622 4.89058 17.1094C1.51645 13.7353 1.51645 8.26473 4.89058 4.8906Z" fill="white"/>
<path d="M7.55445 18.9258C10.7138 20.2982 14.526 19.6927 17.1094 17.1094C20.4835 13.7353 20.4835 8.26473 17.1094 4.8906C16.8566 4.63782 16.5921 4.40397 16.3175 4.18907L12.3576 8.14894L13.851 9.64235L16.3026 7.19079C18.14 9.74196 17.9111 13.3209 15.616 15.616C13.8795 17.3524 11.4082 17.9061 9.20314 17.2771L7.55445 18.9258Z" fill="white"/>
<path d="M12.4934 11L11 9.50659L9.50658 11L11 12.4934L12.4934 11Z" fill="white"/>
<path d="M8.14894 6.65553L9.64235 8.14894L8.14894 9.64235L6.65553 8.14894L8.14894 6.65553Z" fill="white"/>
<path d="M15.3444 13.8511L13.851 12.3576L12.3576 13.8511L13.851 15.3445L15.3444 13.8511Z" fill="white"/>
</g>
<defs>
<filter id="filter0_d" x="0.359985" y="0.360001" width="21.28" height="21.28" filterUnits="userSpaceOnUse" color-interpolation-filters="sRGB">
<feFlood flood-opacity="0" result="BackgroundImageFix"/>
<feColorMatrix in="SourceAlpha" type="matrix" values="0 0 0 0 0 0 0 0 0 0 0 0 0 0 0 0 0 0 127 0"/>
<feOffset/>
<feGaussianBlur stdDeviation="1"/>
<feColorMatrix type="matrix" values="0 0 0 0 0 0 0 0 0 0 0 0 0 0 0 0 0 0 0.25 0"/>
<feBlend mode="normal" in2="BackgroundImageFix" result="effect1_dropShadow"/>
<feBlend mode="normal" in="SourceGraphic" in2="effect1_dropShadow" result="shape"/>
</filter>
</defs>
</svg>
