<svg width="42" height="42" viewBox="0 0 42 42" fill="none" xmlns="http://www.w3.org/2000/svg">
<path fill-rule="evenodd" clip-rule="evenodd" d="M21 42C32.598 42 42 32.598 42 21C42 9.40202 32.598 0 21 0C9.40202 0 0 9.40202 0 21C0 32.598 9.40202 42 21 42ZM10.3084 10.3084C14.8293 5.78759 21.5007 4.72804 27.0296 7.12979L24.1444 10.015C20.2855 8.91415 15.9607 9.88312 12.9219 12.9219C8.90544 16.9383 8.50492 23.2015 11.7203 27.666L16.0105 23.3758L18.624 25.9892L11.6942 32.919C11.2138 32.5429 10.7508 32.1337 10.3084 31.6913C4.4037 25.7866 4.4037 16.2132 10.3084 10.3084ZM14.9702 34.87C20.4991 37.2717 27.1705 36.2122 31.6913 31.6913C37.5961 25.7866 37.5961 16.2132 31.6913 10.3084C31.249 9.86606 30.786 9.45683 30.3055 9.08075L23.3758 16.0105L25.9892 18.624L30.2795 14.3338C33.4949 18.7983 33.0943 25.0614 29.0779 29.0779C26.0391 32.1166 21.7143 33.0856 17.8554 31.9848L14.9702 34.87ZM20.9999 18.3864L23.6134 20.9999L20.9999 23.6133L18.3864 20.9999L20.9999 18.3864ZM16.0106 13.3971L18.624 16.0105L16.0106 18.624L13.3971 16.0105L16.0106 13.3971ZM25.9892 23.3758L28.6027 25.9892L25.9892 28.6027L23.3758 25.9892L25.9892 23.3758Z" fill="#212121"/>
</svg>
