<svg width="48" height="48" viewBox="0 0 48 48" fill="none" xmlns="http://www.w3.org/2000/svg">
<path d="M48 24C48 10.7452 37.2548 0 24 0C10.7452 0 0 10.7452 0 24C0 37.2548 10.7452 48 24 48C37.2548 48 48 37.2548 48 24Z" fill="url(#paint0_linear)"/>
<g filter="url(#filter0_i)">
<path fill-rule="evenodd" clip-rule="evenodd" d="M5.19238 30.5397V24.0001C5.19238 13.6129 13.6129 5.19238 24.0001 5.19238C29.1234 5.19238 33.7684 7.24102 37.1606 10.5638L33.1622 13.0622C30.6834 10.9837 27.4881 9.73215 24.0001 9.73215C16.1201 9.73215 9.73215 16.1201 9.73215 24.0001H14.2719L5.19238 30.5397ZM14.769 34.8798C17.2573 36.9933 20.4798 38.2682 24.0002 38.2682C31.8801 38.2682 38.2682 31.8801 38.2682 24.0002H33.7283L42.8075 17.3527L42.8078 24.0002C42.8078 34.3874 34.3874 42.808 24.0002 42.808C18.845 42.808 14.1742 40.7337 10.7768 37.3744L14.769 34.8798ZM31.215 30.2423H26.0267L24.0002 27.5046L21.9736 30.2423H16.7852L21.4857 24.1079L16.7851 17.758H21.6492L24.0002 20.8263L26.3512 17.7581H31.2153L26.5146 24.1079L31.215 30.2423Z" fill="white"/>
</g>
<defs>
<filter id="filter0_i" x="5.19238" y="5.19238" width="37.6154" height="37.6156" filterUnits="userSpaceOnUse" color-interpolation-filters="sRGB">
<feFlood flood-opacity="0" result="BackgroundImageFix"/>
<feBlend mode="normal" in="SourceGraphic" in2="BackgroundImageFix" result="shape"/>
<feColorMatrix in="SourceAlpha" type="matrix" values="0 0 0 0 0 0 0 0 0 0 0 0 0 0 0 0 0 0 127 0" result="hardAlpha"/>
<feOffset/>
<feGaussianBlur stdDeviation="0.5"/>
<feComposite in2="hardAlpha" operator="arithmetic" k2="-1" k3="1"/>
<feColorMatrix type="matrix" values="0 0 0 0 0.14902 0 0 0 0 0.196078 0 0 0 0 0.219608 0 0 0 0.25 0"/>
<feBlend mode="normal" in2="shape" result="effect1_innerShadow"/>
</filter>
<linearGradient id="paint0_linear" x1="24" y1="0" x2="24" y2="48" gradientUnits="userSpaceOnUse">
<stop stop-color="#4527A0"/>
<stop offset="1" stop-color="#6200EA"/>
</linearGradient>
</defs>
</svg>
