<svg width="48" height="48" viewBox="0 0 48 48" fill="none" xmlns="http://www.w3.org/2000/svg">
<circle cx="24" cy="24" r="24" fill="#171E2C"/>
<path d="M14.4222 13H13.55C13.2462 13 13 13.2462 13 13.55V34.175C13 34.6306 13.3694 35 13.825 35H15.9583C16.1771 35 16.3869 34.9131 16.5416 34.7584L21.468 29.832C21.5754 29.7246 21.5754 29.5504 21.468 29.443L19.382 27.357C19.2746 27.2496 19.1004 27.2496 18.993 27.357L16.7695 29.5805C16.5962 29.7538 16.3 29.6311 16.3 29.3861V20.2639C16.3 20.0189 16.5962 19.8962 16.7695 20.0695L31.4584 34.7584C31.6131 34.9131 31.8229 35 32.0417 35H34.45C34.7538 35 35 34.7538 35 34.45V13.55C35 13.2462 34.7538 13 34.45 13H33.35L26.532 19.818C26.4246 19.9254 26.4246 20.0996 26.532 20.207L28.618 22.293C28.7254 22.4004 28.8996 22.4004 29.007 22.293L31.2305 20.0695C31.4038 19.8962 31.7 20.0189 31.7 20.2639V29.3861C31.7 29.6311 31.4038 29.7538 31.2305 29.5805L14.8111 13.1611C14.7079 13.0579 14.5681 13 14.4222 13Z" fill="#FAFAFA"/>
</svg>
