<svg width="114" height="31" viewBox="0 0 114 31" fill="none" xmlns="http://www.w3.org/2000/svg">
<path fill-rule="evenodd" clip-rule="evenodd" d="M14.9403 0.697998C6.68902 0.697998 0 7.32508 0 15.4999C0 23.6748 6.68902 30.3019 14.9403 30.3019C23.1915 30.3019 29.8806 23.6748 29.8806 15.4999C29.8806 7.32508 23.1915 0.697998 14.9403 0.697998ZM7.33438 23.0355C3.13306 18.8739 3.13306 12.126 7.33438 7.96373C10.5508 4.77719 15.297 4.03046 19.2305 5.72356L17.1779 7.75675C14.4322 6.98133 11.3555 7.66394 9.19326 9.8058C6.336 12.637 6.051 17.0514 8.33829 20.1982L11.3911 17.1747L13.2499 19.0168L8.3199 23.9007C7.97791 23.6357 7.64879 23.3475 7.33438 23.0355ZM14.9403 17.342L13.0814 15.4999L14.9403 13.6579L16.7998 15.4999L14.9403 17.342ZM18.4901 17.1747L20.3496 19.0168L18.4901 20.8589L16.6306 19.0168L18.4901 17.1747ZM11.3911 13.8252L9.53157 11.9831L11.3911 10.141L13.2499 11.9831L11.3911 13.8252ZM22.5468 23.0355C19.3304 26.2221 14.5842 26.9688 10.6507 25.2763L12.7033 23.2425C15.449 24.0185 18.5256 23.3353 20.6873 21.1935C23.5452 18.3623 23.8302 13.9479 21.5423 10.801L18.4901 13.8252L16.6306 11.9831L21.5606 7.09856C21.9026 7.36354 22.2324 7.65234 22.5468 7.96373C26.7475 12.126 26.7475 18.8739 22.5468 23.0355Z" fill="#3B58FE"/>
<path fill-rule="evenodd" clip-rule="evenodd" d="M14.9403 0.697998C6.68902 0.697998 0 7.32508 0 15.4999C0 23.6748 6.68902 30.3019 14.9403 30.3019C23.1915 30.3019 29.8806 23.6748 29.8806 15.4999C29.8806 7.32508 23.1915 0.697998 14.9403 0.697998ZM7.33438 23.0355C3.13306 18.8739 3.13306 12.126 7.33438 7.96373C10.5508 4.77719 15.297 4.03046 19.2305 5.72356L17.1779 7.75675C14.4322 6.98133 11.3555 7.66394 9.19326 9.8058C6.336 12.637 6.051 17.0514 8.33829 20.1982L11.3911 17.1747L13.2499 19.0168L8.3199 23.9007C7.97791 23.6357 7.64879 23.3475 7.33438 23.0355ZM14.9403 17.342L13.0814 15.4999L14.9403 13.6579L16.7998 15.4999L14.9403 17.342ZM18.4901 17.1747L20.3496 19.0168L18.4901 20.8589L16.6306 19.0168L18.4901 17.1747ZM11.3911 13.8252L9.53157 11.9831L11.3911 10.141L13.2499 11.9831L11.3911 13.8252ZM22.5468 23.0355C19.3304 26.2221 14.5842 26.9688 10.6507 25.2763L12.7033 23.2425C15.449 24.0185 18.5256 23.3353 20.6873 21.1935C23.5452 18.3623 23.8302 13.9479 21.5423 10.801L18.4901 13.8252L16.6306 11.9831L21.5606 7.09856C21.9026 7.36354 22.2324 7.65234 22.5468 7.96373C26.7475 12.126 26.7475 18.8739 22.5468 23.0355Z" fill="url(#paint0_linear)"/>
<path d="M37.5203 9.14943H43.526C44.9171 9.14943 46.1509 9.40949 47.2275 9.92963C48.304 10.4498 49.1387 11.1876 49.7314 12.1432C50.3241 13.0988 50.6205 14.2177 50.6205 15.4999C50.6205 16.7821 50.3241 17.901 49.7314 18.8566C49.1387 19.8122 48.304 20.5501 47.2275 21.0702C46.1509 21.5904 44.9171 21.8504 43.526 21.8504H37.5203V9.14943ZM43.3809 18.9836C44.4695 18.9836 45.3405 18.6752 45.9937 18.0583C46.6589 17.4414 46.9916 16.5886 46.9916 15.4999C46.9916 14.4113 46.6589 13.5585 45.9937 12.9416C45.3405 12.3247 44.4695 12.0162 43.3809 12.0162H41.1128V18.9836H43.3809Z" fill="#3B58FE"/>
<path d="M37.5203 9.14943H43.526C44.9171 9.14943 46.1509 9.40949 47.2275 9.92963C48.304 10.4498 49.1387 11.1876 49.7314 12.1432C50.3241 13.0988 50.6205 14.2177 50.6205 15.4999C50.6205 16.7821 50.3241 17.901 49.7314 18.8566C49.1387 19.8122 48.304 20.5501 47.2275 21.0702C46.1509 21.5904 44.9171 21.8504 43.526 21.8504H37.5203V9.14943ZM43.3809 18.9836C44.4695 18.9836 45.3405 18.6752 45.9937 18.0583C46.6589 17.4414 46.9916 16.5886 46.9916 15.4999C46.9916 14.4113 46.6589 13.5585 45.9937 12.9416C45.3405 12.3247 44.4695 12.0162 43.3809 12.0162H41.1128V18.9836H43.3809Z" fill="url(#paint1_linear)"/>
<path d="M61.8841 21.8504L59.2532 17.9131L56.6585 21.8504H52.5579L57.1847 15.4274L52.7575 9.14943H56.8037L59.3439 12.8146L61.8478 9.14943H65.7307L61.3035 15.2822L66.021 21.8504H61.8841Z" fill="#3B58FE"/>
<path d="M61.8841 21.8504L59.2532 17.9131L56.6585 21.8504H52.5579L57.1847 15.4274L52.7575 9.14943H56.8037L59.3439 12.8146L61.8478 9.14943H65.7307L61.3035 15.2822L66.021 21.8504H61.8841Z" fill="url(#paint2_linear)"/>
<path d="M69.6917 9.14943H75.0443C76.3869 9.14943 77.5784 9.41554 78.6187 9.94778C79.659 10.48 80.4634 11.23 81.0319 12.1977C81.6125 13.1533 81.9028 14.254 81.9028 15.4999C81.9028 16.7458 81.6125 17.8526 81.0319 18.8203C80.4634 19.7759 79.659 20.5199 78.6187 21.0521C77.5784 21.5843 76.3869 21.8504 75.0443 21.8504H69.6917V9.14943ZM74.9354 20.2719C75.9636 20.2719 76.8647 20.0723 77.6389 19.6731C78.4252 19.274 79.03 18.7175 79.4533 18.0039C79.8767 17.2781 80.0884 16.4434 80.0884 15.4999C80.0884 14.5564 79.8767 13.7278 79.4533 13.0142C79.03 12.2884 78.4252 11.7259 77.6389 11.3267C76.8647 10.9276 75.9636 10.728 74.9354 10.728H71.5061V20.2719H74.9354Z" fill="#3B58FE"/>
<path d="M69.6917 9.14943H75.0443C76.3869 9.14943 77.5784 9.41554 78.6187 9.94778C79.659 10.48 80.4634 11.23 81.0319 12.1977C81.6125 13.1533 81.9028 14.254 81.9028 15.4999C81.9028 16.7458 81.6125 17.8526 81.0319 18.8203C80.4634 19.7759 79.659 20.5199 78.6187 21.0521C77.5784 21.5843 76.3869 21.8504 75.0443 21.8504H69.6917V9.14943ZM74.9354 20.2719C75.9636 20.2719 76.8647 20.0723 77.6389 19.6731C78.4252 19.274 79.03 18.7175 79.4533 18.0039C79.8767 17.2781 80.0884 16.4434 80.0884 15.4999C80.0884 14.5564 79.8767 13.7278 79.4533 13.0142C79.03 12.2884 78.4252 11.7259 77.6389 11.3267C76.8647 10.9276 75.9636 10.728 74.9354 10.728H71.5061V20.2719H74.9354Z" fill="url(#paint3_linear)"/>
<path d="M94.4116 18.6752H87.6619L86.2648 21.8504H84.396L90.1477 9.14943H91.944L97.7139 21.8504H95.8087L94.4116 18.6752ZM93.7766 17.2236L91.0368 11.0001L88.297 17.2236H93.7766Z" fill="#3B58FE"/>
<path d="M94.4116 18.6752H87.6619L86.2648 21.8504H84.396L90.1477 9.14943H91.944L97.7139 21.8504H95.8087L94.4116 18.6752ZM93.7766 17.2236L91.0368 11.0001L88.297 17.2236H93.7766Z" fill="url(#paint4_linear)"/>
<path d="M106.979 21.9956C105.697 21.9956 104.542 21.7174 103.514 21.161C102.486 20.5924 101.675 19.8122 101.082 18.8203C100.502 17.8285 100.212 16.7217 100.212 15.4999C100.212 14.2782 100.502 13.1714 101.082 12.1795C101.675 11.1876 102.486 10.4135 103.514 9.85705C104.542 9.28853 105.697 9.00427 106.979 9.00427C108.249 9.00427 109.399 9.28853 110.427 9.85705C111.455 10.4135 112.259 11.1876 112.84 12.1795C113.421 13.1593 113.711 14.2661 113.711 15.4999C113.711 16.7337 113.421 17.8466 112.84 18.8385C112.259 19.8183 111.455 20.5924 110.427 21.161C109.399 21.7174 108.249 21.9956 106.979 21.9956ZM106.979 20.3808C107.911 20.3808 108.745 20.1691 109.483 19.7457C110.233 19.3223 110.82 18.7417 111.243 18.0039C111.679 17.2539 111.896 16.4192 111.896 15.4999C111.896 14.5806 111.679 13.752 111.243 13.0142C110.82 12.2642 110.233 11.6775 109.483 11.2542C108.745 10.8308 107.911 10.6191 106.979 10.6191C106.048 10.6191 105.201 10.8308 104.439 11.2542C103.689 11.6775 103.097 12.2642 102.661 13.0142C102.238 13.752 102.026 14.5806 102.026 15.4999C102.026 16.4192 102.238 17.2539 102.661 18.0039C103.097 18.7417 103.689 19.3223 104.439 19.7457C105.201 20.1691 106.048 20.3808 106.979 20.3808Z" fill="#3B58FE"/>
<path d="M106.979 21.9956C105.697 21.9956 104.542 21.7174 103.514 21.161C102.486 20.5924 101.675 19.8122 101.082 18.8203C100.502 17.8285 100.212 16.7217 100.212 15.4999C100.212 14.2782 100.502 13.1714 101.082 12.1795C101.675 11.1876 102.486 10.4135 103.514 9.85705C104.542 9.28853 105.697 9.00427 106.979 9.00427C108.249 9.00427 109.399 9.28853 110.427 9.85705C111.455 10.4135 112.259 11.1876 112.84 12.1795C113.421 13.1593 113.711 14.2661 113.711 15.4999C113.711 16.7337 113.421 17.8466 112.84 18.8385C112.259 19.8183 111.455 20.5924 110.427 21.161C109.399 21.7174 108.249 21.9956 106.979 21.9956ZM106.979 20.3808C107.911 20.3808 108.745 20.1691 109.483 19.7457C110.233 19.3223 110.82 18.7417 111.243 18.0039C111.679 17.2539 111.896 16.4192 111.896 15.4999C111.896 14.5806 111.679 13.752 111.243 13.0142C110.82 12.2642 110.233 11.6775 109.483 11.2542C108.745 10.8308 107.911 10.6191 106.979 10.6191C106.048 10.6191 105.201 10.8308 104.439 11.2542C103.689 11.6775 103.097 12.2642 102.661 13.0142C102.238 13.752 102.026 14.5806 102.026 15.4999C102.026 16.4192 102.238 17.2539 102.661 18.0039C103.097 18.7417 103.689 19.3223 104.439 19.7457C105.201 20.1691 106.048 20.3808 106.979 20.3808Z" fill="url(#paint5_linear)"/>
<defs>
<linearGradient id="paint0_linear" x1="14.9403" y1="0.697998" x2="14.9403" y2="30.3019" gradientUnits="userSpaceOnUse">
<stop stop-color="#292D30" stop-opacity="0.8"/>
<stop offset="1" stop-color="#292D30"/>
</linearGradient>
<linearGradient id="paint1_linear" x1="75.6156" y1="9.00427" x2="75.6156" y2="21.9956" gradientUnits="userSpaceOnUse">
<stop stop-color="#292D30" stop-opacity="0.8"/>
<stop offset="1" stop-color="#292D30"/>
</linearGradient>
<linearGradient id="paint2_linear" x1="75.6156" y1="9.00427" x2="75.6156" y2="21.9956" gradientUnits="userSpaceOnUse">
<stop stop-color="#292D30" stop-opacity="0.8"/>
<stop offset="1" stop-color="#292D30"/>
</linearGradient>
<linearGradient id="paint3_linear" x1="75.6156" y1="9.00427" x2="75.6156" y2="21.9956" gradientUnits="userSpaceOnUse">
<stop stop-color="#292D30" stop-opacity="0.8"/>
<stop offset="1" stop-color="#292D30"/>
</linearGradient>
<linearGradient id="paint4_linear" x1="75.6156" y1="9.00427" x2="75.6156" y2="21.9956" gradientUnits="userSpaceOnUse">
<stop stop-color="#292D30" stop-opacity="0.8"/>
<stop offset="1" stop-color="#292D30"/>
</linearGradient>
<linearGradient id="paint5_linear" x1="75.6156" y1="9.00427" x2="75.6156" y2="21.9956" gradientUnits="userSpaceOnUse">
<stop stop-color="#292D30" stop-opacity="0.8"/>
<stop offset="1" stop-color="#292D30"/>
</linearGradient>
</defs>
</svg>
